<svg height="512pt" viewBox="0 0 512 512" width="512pt" xmlns="http://www.w3.org/2000/svg"><path d="m473.601562 512h-435.203124c-21.167969 0-38.398438-17.230469-38.398438-38.398438v-435.203124c0-21.167969 17.230469-38.398438 38.398438-38.398438h435.203124c21.167969 0 38.398438 17.230469 38.398438 38.398438v435.203124c0 21.167969-17.230469 38.398438-38.398438 38.398438zm-435.203124-494.933594c-11.757813 0-21.332032 9.574219-21.332032 21.332032v435.203124c0 11.757813 9.574219 21.332032 21.332032 21.332032h435.203124c11.765626 0 21.332032-9.574219 21.332032-21.332032v-435.203124c0-11.757813-9.574219-21.332032-21.332032-21.332032zm0 0"/><path d="m76.800781 85.332031h-34.132812c-4.710938 0-8.535157-3.820312-8.535157-8.53125v-34.132812c0-4.710938 3.824219-8.535157 8.535157-8.535157h34.132812c4.710938 0 8.53125 3.824219 8.53125 8.535157v34.132812c0 4.710938-3.820312 8.53125-8.53125 8.53125zm-25.601562-17.066406h17.066406v-17.066406h-17.066406zm0 0"/><path d="m145.066406 85.332031h-34.132812c-4.710938 0-8.535156-3.820312-8.535156-8.53125v-34.132812c0-4.710938 3.824218-8.535157 8.535156-8.535157h34.132812c4.710938 0 8.535156 3.824219 8.535156 8.535157v34.132812c0 4.710938-3.824218 8.53125-8.535156 8.53125zm-25.601562-17.066406h17.070312v-17.066406h-17.070312zm0 0"/><path d="m213.332031 85.332031h-34.132812c-4.710938 0-8.53125-3.820312-8.53125-8.53125v-34.132812c0-4.710938 3.820312-8.535157 8.53125-8.535157h34.132812c4.710938 0 8.535157 3.824219 8.535157 8.535157v34.132812c0 4.710938-3.824219 8.53125-8.535157 8.53125zm-25.597656-17.066406h17.066406v-17.066406h-17.066406zm0 0"/><path d="m503.464844 119.464844h-494.929688c-4.710937 0-8.535156-3.820313-8.535156-8.53125v-72.535156c0-21.167969 17.230469-38.398438 38.398438-38.398438h435.203124c21.167969 0 38.398438 17.230469 38.398438 38.398438v72.535156c0 4.710937-3.824219 8.53125-8.535156 8.53125zm-486.398438-17.066406h477.867188v-64c0-11.757813-9.574219-21.332032-21.332032-21.332032h-435.203124c-11.757813 0-21.332032 9.574219-21.332032 21.332032zm0 0"/><path d="m452.265625 358.398438h-392.53125c-4.710937 0-8.535156-3.820313-8.535156-8.53125v-187.734376c0-4.710937 3.824219-8.53125 8.535156-8.53125h392.53125c4.710937 0 8.535156 3.820313 8.535156 8.53125v187.734376c0 4.710937-3.824219 8.53125-8.535156 8.53125zm-384-17.066407h375.46875v-170.664062h-375.46875zm0 0"/><path d="m452.265625 460.800781h-392.53125c-4.710937 0-8.535156-3.824219-8.535156-8.535156v-68.265625c0-4.710938 3.824219-8.535156 8.535156-8.535156h392.53125c4.710937 0 8.535156 3.824218 8.535156 8.535156v68.265625c0 4.710937-3.824219 8.535156-8.535156 8.535156zm-384-17.066406h375.46875v-51.199219h-375.46875zm0 0"/><path d="m153.601562 324.265625c-37.640624 0-68.269531-30.625-68.269531-68.265625s30.628907-68.265625 68.269531-68.265625c37.640626 0 68.265626 30.625 68.265626 68.265625s-30.625 68.265625-68.265626 68.265625zm0-119.464844c-28.230468 0-51.203124 22.960938-51.203124 51.199219s22.972656 51.199219 51.203124 51.199219c28.226563 0 51.199219-22.960938 51.199219-51.199219s-22.972656-51.199219-51.199219-51.199219zm0 0"/><path d="m153.601562 324.265625c-13.953124 0-27.386718-4.207031-38.863281-12.167969-2.457031-1.707031-3.839843-4.566406-3.652343-7.550781.710937-11.246094 5.992187-21.8125 14.414062-29.234375-3.925781-5.652344-6.035156-12.332031-6.035156-19.3125 0-10.15625 4.480468-19.710938 12.28125-26.222656 7.800781-6.511719 18.082031-9.191406 28.203125-7.332032 13.335937 2.433594 24.191406 12.964844 27.007812 26.207032 1.996094 9.394531.035157 18.988281-5.257812 26.660156 8.433593 7.421875 13.707031 17.988281 14.421875 29.242188.1875 2.976562-1.195313 5.84375-3.652344 7.542968-11.476562 7.960938-24.917969 12.167969-38.867188 12.167969zm-24.714843-23.449219c15.105469 8.371094 34.3125 8.378906 49.417969.007813-1.597657-6.03125-5.410157-11.390625-10.746094-14.898438-2.925782-1.917969-4.8125-5.027343-5.179688-8.523437-.363281-3.523438.855469-6.972656 3.347656-9.472656 4.121094-4.148438 5.777344-9.890626 4.539063-15.726563-1.367187-6.441406-6.871094-11.777344-13.371094-12.960937-5.214843-.949219-10.25.339843-14.207031 3.640624-3.917969 3.261719-6.152344 8.039063-6.152344 13.117188 0 4.480469 1.757813 8.722656 4.957032 11.9375 2.480468 2.492188 3.695312 5.941406 3.335937 9.457031-.359375 3.496094-2.246094 6.601563-5.171875 8.53125-5.433594 3.566407-9.207031 8.832031-10.769531 14.890625zm0 0"/><path d="m298.667969 221.867188h-25.601563c-4.710937 0-8.53125-3.824219-8.53125-8.535157 0-4.710937 3.820313-8.53125 8.53125-8.53125h25.601563c4.710937 0 8.53125 3.820313 8.53125 8.53125 0 4.710938-3.820313 8.535157-8.53125 8.535157zm0 0"/><path d="m375.464844 264.535156h-102.398438c-4.710937 0-8.53125-3.824218-8.53125-8.535156s3.820313-8.535156 8.53125-8.535156h102.398438c4.710937 0 8.535156 3.824218 8.535156 8.535156s-3.824219 8.535156-8.535156 8.535156zm0 0"/><path d="m375.464844 307.199219h-102.398438c-4.710937 0-8.53125-3.820313-8.53125-8.53125 0-4.710938 3.820313-8.535157 8.53125-8.535157h102.398438c4.710937 0 8.535156 3.824219 8.535156 8.535157 0 4.710937-3.824219 8.53125-8.535156 8.53125zm0 0"/></svg>